<?xml version="1.0" encoding="UTF-8" standalone="no"?>
<!-- Created with Inkscape (http://www.inkscape.org/) -->

<svg
   xmlns:dc="http://purl.org/dc/elements/1.1/"
   xmlns:cc="http://creativecommons.org/ns#"
   xmlns:rdf="http://www.w3.org/1999/02/22-rdf-syntax-ns#"
   xmlns:svg="http://www.w3.org/2000/svg"
   xmlns="http://www.w3.org/2000/svg"
   xmlns:sodipodi="http://sodipodi.sourceforge.net/DTD/sodipodi-0.dtd"
   xmlns:inkscape="http://www.inkscape.org/namespaces/inkscape"
   width="261"
   height="261"
   id="svg2"
   version="1.1"
   inkscape:version="0.48.5 r10040"
   sodipodi:docname="Diana R5.svg">
  <defs
     id="defs4" />
  <sodipodi:namedview
     id="base"
     pagecolor="#ffffff"
     bordercolor="#666666"
     borderopacity="1.0"
     inkscape:pageopacity="0.0"
     inkscape:pageshadow="2"
     inkscape:zoom="3.1469181"
     inkscape:cx="92.473298"
     inkscape:cy="130.05503"
     inkscape:document-units="px"
     inkscape:current-layer="g4223"
     showgrid="false"
     fit-margin-top="0"
     fit-margin-left="0"
     fit-margin-right="0"
     fit-margin-bottom="0"
     inkscape:window-width="1680"
     inkscape:window-height="995"
     inkscape:window-x="-2"
     inkscape:window-y="-3"
     inkscape:window-maximized="1"
     showguides="true"
     inkscape:guide-bbox="true" />
  <metadata
     id="metadata7">
    <rdf:RDF>
      <cc:Work
         rdf:about="">
        <dc:format>image/svg+xml</dc:format>
        <dc:type
           rdf:resource="http://purl.org/dc/dcmitype/StillImage" />
        <dc:title />
      </cc:Work>
    </rdf:RDF>
  </metadata>
  <g
     inkscape:label="Capa 1"
     inkscape:groupmode="layer"
     id="capa1"
     transform="translate(-238.46063,-178.57765)">
    <g
       transform="matrix(1.25,0,0,-1.25,146.49067,519.84598)"
       inkscape:label="ink_ext_XXXXXX"
       id="g3287"
       style="stroke-width:0.80000001;stroke-miterlimit:10;stroke-dasharray:none">
      <g
         transform="matrix(0.1,0,0,0.1,4.7384675,-4.738463)"
         id="g3289"
         style="stroke-width:8;stroke-miterlimit:10;stroke-dasharray:none">
        <g
           id="g4223"
           style="stroke-width:8;stroke-miterlimit:10;stroke-dasharray:none">
          <path
             inkscape:connector-curvature="0"
             d="m 1732.2265,2770.5498 c 587.85,0 1036.88,-449.03 1036.88,-1036.88 0,-587.84 -449.03,-1036.87603 -1036.88,-1036.87603 -587.85,0 -1036.87299,449.03603 -1036.87299,1036.87603 0,587.85 449.02299,1036.88 1036.87299,1036.88 z m -1036.87299,0 0,0 z M 2769.3965,696.51277 l 0,0"
             style="fill:#01ffff;fill-opacity:1;fill-rule:evenodd;stroke:#000000;stroke-opacity:1"
             id="path3323" />
          <path
             inkscape:connector-curvature="0"
             d="m 1729.26,2594.18 c 489.83,0 864.07,-374.24 864.07,-864.07 0,-489.82 -374.24,-864.063 -864.07,-864.063 -489.82,0 -864.061,374.243 -864.061,864.063 0,489.83 374.241,864.07 864.061,864.07 z m -864.061,0 0,0 z M 2593.61,865.766 l 0,0"
             style="fill:#01ffff;fill-opacity:1;fill-rule:evenodd;stroke:#000000;stroke-opacity:1"
             id="path3331" />
          <path
             inkscape:connector-curvature="0"
             d="m 1729.26,2421.37 c 391.81,0 691.26,-299.45 691.26,-691.26 0,-391.8 -299.45,-691.25 -691.26,-691.25 -391.8,0 -691.25,299.45 -691.25,691.25 0,391.81 299.45,691.26 691.25,691.26 z m -691.25,0 0,0 z m 1382.79,-1382.79 0,0"
             style="fill:#ff0101;fill-opacity:1;fill-rule:evenodd;stroke:#000000;stroke-opacity:1"
             id="path3339" />
          <path
             inkscape:connector-curvature="0"
             d="m 1729.26,2248.55 c 293.79,0 518.44,-224.66 518.44,-518.44 0,-293.78 -224.65,-518.43 -518.44,-518.43 -293.78,0 -518.44,224.65 -518.44,518.43 0,293.78 224.66,518.44 518.44,518.44 z m -518.44,0 0,0 z m 1037.16,-1037.16 0,0"
             style="fill:#ff0101;fill-opacity:1;fill-rule:evenodd;stroke:#000000;stroke-opacity:1"
             id="path3347" />
          <path
             inkscape:connector-curvature="0"
             d="m 1729.26,2075.74 c 196.05,0 345.63,-149.58 345.63,-345.63 0,-196.04 -149.58,-345.62 -345.63,-345.62 -196.04,0 -345.62,149.58 -345.62,345.62 0,196.05 149.58,345.63 345.62,345.63 z m -345.62,0 0,0 z m 691.53,-691.54 0,0"
             style="fill:#ffff01;fill-opacity:1;fill-rule:evenodd;stroke:#000000;stroke-opacity:1"
             id="path3355" />
          <path
             inkscape:connector-curvature="0"
             d="m 1729.26,1902.93 c 98.03,0 172.82,-74.79 172.82,-172.82 0,-98.02 -74.79,-172.81 -172.82,-172.81 -98.02,0 -172.81,74.79 -172.81,172.81 0,98.03 74.79,172.82 172.81,172.82 z m -172.81,0 0,0 z m 345.91,-345.91 0,0"
             style="fill:#ffff01;fill-opacity:1;fill-rule:evenodd;stroke:#000000;stroke-opacity:1"
             id="path3379" />
          <path
             inkscape:connector-curvature="0"
             d="m 1729.26,1816.52 c 49.01,0 86.41,-37.4 86.41,-86.41 0,-49.01 -37.4,-86.4 -86.41,-86.4 -49.01,0 -86.4,37.39 -86.4,86.4 0,49.01 37.39,86.41 86.4,86.41 z m -86.4,0 0,0 z m 173.09,-173.1 0,0"
             style="fill:#ffff01;fill-opacity:1;fill-rule:evenodd;stroke:#000000;stroke-opacity:1"
             id="path3387" />
          <path
             inkscape:connector-curvature="0"
             d="m 1729.26,1744.28 0,-28.33"
             style="fill:none;stroke:#010101;stroke-width:8;stroke-linecap:butt;stroke-linejoin:round;stroke-miterlimit:10;stroke-opacity:1;stroke-dasharray:none"
             id="path3395" />
          <path
             inkscape:connector-curvature="0"
             d="m 1715.1,1730.11 28.33,0"
             style="fill:none;stroke:#010101;stroke-width:8;stroke-linecap:butt;stroke-linejoin:round;stroke-miterlimit:10;stroke-opacity:1;stroke-dasharray:none"
             id="path3397" />
        </g>
      </g>
    </g>
  </g>
</svg>
