<svg viewBox="0 0 138 138" style="overflow: hidden; position: relative;" xmlns="http://www.w3.org/2000/svg" width="138" version="1.1" height="138"><desc>Created with Raphaël 2.1.0</desc><defs><linearGradient gradientTransform="matrix(1,0,0,1,0,0)" y2="0" x2="6.123233995736766e-17" y1="1" x1="0" id="188390-_03CA45-_AF00AA"><stop stop-color="#f048c6" offset="0%"></stop><stop stop-color="#fcea41" offset="100%"></stop></linearGradient></defs><path stroke-width="0.2631578947368421" transform="matrix(3.8,0,0,3.8,8.2,8.2)" fill-opacity="1" opacity="1" d="M16,1.466C7.973,1.466,1.466,7.973,1.466,16C1.466,24.027,7.973,30.534,16,30.534C24.027,30.534,30.534,24.027,30.534,15.999999999999998C30.534,7.973,24.027,1.466,16,1.466ZM13.665,25.725L10.129,22.186L16.316,15.998999999999999L10.128999999999998,9.811999999999998L13.664999999999997,6.275999999999998L23.388999999999996,15.998999999999999L13.665,25.725Z" stroke="none" fill="url(#188390-_03CA45-_AF00AA)" style="opacity: 1; fill-opacity: 1;"></path><path transform="matrix(1,0,0,1,0,0)" fill-opacity="0.3" d="M0,0" stroke="none" fill="#ffffff" style="fill-opacity: 0.3;"></path></svg>